# Blender v2.93.4 OBJ File: ''
# www.blender.org
mtllib Ground.mtl
o Cube_Cube.001
v -10.000000 0.000000 10.000000
v 10.000000 0.000000 10.000000
v -10.000000 0.000000 -10.000000
v 10.000000 0.000000 -10.000000
v 0.000000 0.000000 10.000000
v 0.000000 0.000000 -10.000000
v -10.000000 0.000000 0.000000
v 10.000000 0.000000 0.000000
v 0.000000 0.000000 0.000000
v 5.000000 0.000000 10.000000
v 5.000000 0.000000 -10.000000
v 5.000000 0.000000 0.000000
v -5.000000 0.000000 -10.000000
v -5.000000 0.000000 10.000000
v -5.000000 0.000000 0.000000
v 10.000000 0.000000 -5.051252
v 0.000000 0.000000 -5.051252
v -10.000000 0.000000 -5.051252
v 5.000000 0.000000 -5.051252
v -5.000000 0.000000 -5.051252
v -10.000000 0.000000 5.000000
v 10.000000 0.000000 5.000000
v 0.000000 0.000000 5.000000
v 5.000000 0.000000 5.000000
v -5.000000 0.000000 5.000000
v -2.500000 0.000000 10.000000
v -2.500000 0.000000 -10.000000
v -2.500000 0.000000 0.000000
v -2.500000 0.000000 -5.051252
v -2.500000 0.000000 5.000000
v -10.000000 0.000000 7.500000
v 10.000000 0.000000 7.500000
v 0.000000 0.000000 7.500000
v 5.000000 0.000000 7.500000
v -5.000000 0.000000 7.500000
v -2.500000 0.000000 7.500000
v 10.000000 0.000000 2.500000
v 0.000000 0.000000 2.500000
v 5.000000 0.000000 2.500000
v -5.000000 0.000000 2.500000
v -10.000000 0.000000 2.500000
v -2.500000 0.000000 2.500000
v -10.000000 0.000000 -2.525626
v 10.000000 0.000000 -2.525626
v 0.000000 0.000000 -2.525626
v 5.000000 0.000000 -2.525626
v -5.000000 0.000000 -2.525626
v -2.500000 0.000000 -2.525626
v 10.000000 0.000000 -7.525626
v 0.000000 0.000000 -7.525626
v 5.000000 0.000000 -7.525626
v -5.000000 0.000000 -7.525626
v -10.000000 0.000000 -7.525626
v -2.500000 0.000000 -7.525626
v -7.500000 0.000000 -10.000000
v -7.500000 0.000000 0.000000
v -7.500000 0.000000 10.000000
v -7.500000 0.000000 -5.051252
v -7.500000 0.000000 5.000000
v -7.500000 0.000000 7.500000
v -7.500000 0.000000 2.500000
v -7.500000 0.000000 -2.525626
v -7.500000 0.000000 -7.525626
v 2.500000 0.000000 -10.000000
v 2.500000 0.000000 0.000000
v 2.500000 0.000000 10.000000
v 2.500000 0.000000 -5.051252
v 2.500000 0.000000 5.000000
v 2.500000 0.000000 7.500000
v 2.500000 0.000000 2.500000
v 2.500000 0.000000 -2.525626
v 2.500000 0.000000 -7.525626
v 7.500000 0.000000 10.000000
v 7.500000 0.000000 -10.000000
v 7.500000 0.000000 0.000000
v 7.500000 0.000000 -5.051252
v 7.500000 0.000000 5.000000
v 7.500000 0.000000 7.500000
v 7.500000 0.000000 2.500000
v 7.500000 0.000000 -2.525626
v 7.500000 0.000000 -7.525626
v -10.000000 0.000000 8.750000
v 8.750000 0.000000 10.000000
v 10.000000 0.000000 -8.762814
v -8.750000 0.000000 -10.000000
v -1.250000 0.000000 10.000000
v 1.250000 0.000000 -10.000000
v 0.000000 0.000000 -8.762814
v -10.000000 0.000000 -1.262813
v 10.000000 0.000000 1.250000
v 0.000000 0.000000 1.250000
v -8.750000 0.000000 0.000000
v 1.250000 0.000000 0.000000
v 3.750000 0.000000 10.000000
v 6.250000 0.000000 -10.000000
v 6.250000 0.000000 0.000000
v 5.000000 0.000000 1.250000
v 5.000000 0.000000 -8.762814
v -3.750000 0.000000 -10.000000
v -6.250000 0.000000 10.000000
v -3.750000 0.000000 0.000000
v -5.000000 0.000000 1.250000
v -5.000000 0.000000 -8.762814
v 10.000000 0.000000 -3.788439
v 0.000000 0.000000 -3.788439
v -10.000000 0.000000 -6.288439
v 5.000000 0.000000 -3.788439
v -5.000000 0.000000 -3.788439
v -8.750000 0.000000 -5.051252
v 1.250000 0.000000 -5.051252
v -3.750000 0.000000 -5.051252
v 6.250000 0.000000 -5.051252
v -10.000000 0.000000 3.750000
v 10.000000 0.000000 6.250000
v 0.000000 0.000000 6.250000
v 5.000000 0.000000 6.250000
v -5.000000 0.000000 6.250000
v -8.750000 0.000000 5.000000
v 1.250000 0.000000 5.000000
v 6.250000 0.000000 5.000000
v -3.750000 0.000000 5.000000
v -3.750000 0.000000 10.000000
v -1.250000 0.000000 -10.000000
v -1.250000 0.000000 0.000000
v -1.250000 0.000000 -5.051252
v -1.250000 0.000000 5.000000
v -2.500000 0.000000 6.250000
v -2.500000 0.000000 -3.788439
v -2.500000 0.000000 1.250000
v -2.500000 0.000000 -8.762814
v -10.000000 0.000000 6.250000
v 10.000000 0.000000 8.750000
v 0.000000 0.000000 8.750000
v 5.000000 0.000000 8.750000
v -5.000000 0.000000 8.750000
v -2.500000 0.000000 8.750000
v -3.750000 0.000000 7.500000
v -1.250000 0.000000 7.500000
v 6.250000 0.000000 7.500000
v 1.250000 0.000000 7.500000
v -8.750000 0.000000 7.500000
v 10.000000 0.000000 3.750000
v 0.000000 0.000000 3.750000
v 5.000000 0.000000 3.750000
v -5.000000 0.000000 3.750000
v -10.000000 0.000000 1.250000
v -2.500000 0.000000 3.750000
v -3.750000 0.000000 2.500000
v -8.750000 0.000000 2.500000
v 1.250000 0.000000 2.500000
v 6.250000 0.000000 2.500000
v -1.250000 0.000000 2.500000
v -10.000000 0.000000 -3.788439
v 10.000000 0.000000 -1.262813
v 0.000000 0.000000 -1.262813
v 5.000000 0.000000 -1.262813
v -5.000000 0.000000 -1.262813
v -2.500000 0.000000 -1.262813
v -3.750000 0.000000 -2.525626
v 6.250000 0.000000 -2.525626
v -1.250000 0.000000 -2.525626
v 1.250000 0.000000 -2.525626
v -8.750000 0.000000 -2.525626
v 10.000000 0.000000 -6.288439
v 0.000000 0.000000 -6.288439
v 5.000000 0.000000 -6.288439
v -5.000000 0.000000 -6.288439
v -10.000000 0.000000 -8.762814
v -2.500000 0.000000 -6.288439
v -3.750000 0.000000 -7.525626
v -8.750000 0.000000 -7.525626
v 1.250000 0.000000 -7.525626
v -1.250000 0.000000 -7.525626
v 6.250000 0.000000 -7.525626
v -6.250000 0.000000 -10.000000
v -6.250000 0.000000 0.000000
v -8.750000 0.000000 10.000000
v -6.250000 0.000000 -5.051252
v -6.250000 0.000000 5.000000
v -6.250000 0.000000 7.500000
v -6.250000 0.000000 2.500000
v -6.250000 0.000000 -2.525626
v -6.250000 0.000000 -7.525626
v -7.500000 0.000000 -6.288439
v -7.500000 0.000000 -1.262813
v -7.500000 0.000000 3.750000
v -7.500000 0.000000 8.750000
v -7.500000 0.000000 6.250000
v -7.500000 0.000000 -3.788439
v -7.500000 0.000000 -8.762814
v -7.500000 0.000000 1.250000
v 3.750000 0.000000 -10.000000
v 3.750000 0.000000 0.000000
v 1.250000 0.000000 10.000000
v 3.750000 0.000000 -5.051252
v 3.750000 0.000000 5.000000
v 3.750000 0.000000 7.500000
v 3.750000 0.000000 2.500000
v 3.750000 0.000000 -2.525626
v 3.750000 0.000000 -7.525626
v 2.500000 0.000000 -6.288439
v 2.500000 0.000000 -1.262813
v 2.500000 0.000000 3.750000
v 2.500000 0.000000 8.750000
v 2.500000 0.000000 6.250000
v 2.500000 0.000000 -3.788439
v 2.500000 0.000000 -8.762814
v 2.500000 0.000000 1.250000
v 6.250000 0.000000 10.000000
v 8.750000 0.000000 -10.000000
v 8.750000 0.000000 0.000000
v 8.750000 0.000000 -5.051252
v 8.750000 0.000000 5.000000
v 8.750000 0.000000 7.500000
v 8.750000 0.000000 2.500000
v 8.750000 0.000000 -2.525626
v 8.750000 0.000000 -7.525626
v 7.500000 0.000000 -6.288439
v 7.500000 0.000000 -1.262813
v 7.500000 0.000000 3.750000
v 7.500000 0.000000 8.750000
v 7.500000 0.000000 6.250000
v 7.500000 0.000000 -3.788439
v 7.500000 0.000000 1.250000
v 7.500000 0.000000 -8.762814
v 6.250000 0.000000 -8.762814
v 6.250000 0.000000 1.250000
v 6.250000 0.000000 -3.788439
v 6.250000 0.000000 6.250000
v 6.250000 0.000000 8.750000
v 6.250000 0.000000 3.750000
v 6.250000 0.000000 -1.262813
v 6.250000 0.000000 -6.288439
v 1.250000 0.000000 1.250000
v 1.250000 0.000000 -8.762814
v 1.250000 0.000000 -3.788439
v 1.250000 0.000000 6.250000
v 1.250000 0.000000 8.750000
v 1.250000 0.000000 3.750000
v 1.250000 0.000000 -1.262813
v 1.250000 0.000000 -6.288439
v -8.750000 0.000000 1.250000
v -8.750000 0.000000 -8.762814
v -8.750000 0.000000 -3.788439
v -8.750000 0.000000 6.250000
v -8.750000 0.000000 8.750000
v -8.750000 0.000000 3.750000
v -8.750000 0.000000 -1.262813
v -8.750000 0.000000 -6.288439
v 8.750000 0.000000 -6.288439
v -1.250000 0.000000 -6.288439
v 3.750000 0.000000 -6.288439
v -6.250000 0.000000 -6.288439
v -3.750000 0.000000 -6.288439
v -6.250000 0.000000 -1.262813
v 3.750000 0.000000 -1.262813
v -1.250000 0.000000 -1.262813
v 8.750000 0.000000 -1.262813
v -3.750000 0.000000 -1.262813
v -1.250000 0.000000 3.750000
v 8.750000 0.000000 3.750000
v 3.750000 0.000000 3.750000
v -6.250000 0.000000 3.750000
v -3.750000 0.000000 3.750000
v -6.250000 0.000000 8.750000
v 3.750000 0.000000 8.750000
v 8.750000 0.000000 8.750000
v -1.250000 0.000000 8.750000
v -3.750000 0.000000 8.750000
v -3.750000 0.000000 -8.762814
v -3.750000 0.000000 1.250000
v -3.750000 0.000000 -3.788439
v -3.750000 0.000000 6.250000
v -1.250000 0.000000 6.250000
v 8.750000 0.000000 6.250000
v 3.750000 0.000000 6.250000
v -6.250000 0.000000 6.250000
v 8.750000 0.000000 -3.788439
v -1.250000 0.000000 -3.788439
v 3.750000 0.000000 -3.788439
v -6.250000 0.000000 -3.788439
v -6.250000 0.000000 -8.762814
v -6.250000 0.000000 1.250000
v 3.750000 0.000000 -8.762814
v 3.750000 0.000000 1.250000
v 8.750000 0.000000 1.250000
v -1.250000 0.000000 1.250000
v -1.250000 0.000000 -8.762814
v 8.750000 0.000000 -8.762814
vt 0.937500 0.938141
vt 1.000000 0.938141
vt 1.000000 1.000000
vt 0.937500 1.000000
vt 0.437500 0.938141
vt 0.500000 0.938141
vt 0.500000 1.000000
vt 0.437500 1.000000
vt 0.437500 0.437500
vt 0.500000 0.437500
vt 0.500000 0.500000
vt 0.437500 0.500000
vt 0.937500 0.437500
vt 1.000000 0.437500
vt 1.000000 0.500000
vt 0.937500 0.500000
vt 0.687500 0.437500
vt 0.750000 0.437500
vt 0.750000 0.500000
vt 0.687500 0.500000
vt 0.687500 0.938141
vt 0.750000 0.938141
vt 0.750000 1.000000
vt 0.687500 1.000000
vt 0.187500 0.437500
vt 0.250000 0.437500
vt 0.250000 0.500000
vt 0.187500 0.500000
vt 0.187500 0.938141
vt 0.250000 0.938141
vt 0.250000 1.000000
vt 0.187500 1.000000
vt 0.187500 0.689422
vt 0.250000 0.689422
vt 0.250000 0.752563
vt 0.187500 0.752563
vt 0.687500 0.689422
vt 0.750000 0.689422
vt 0.750000 0.752563
vt 0.687500 0.752563
vt 0.437500 0.689422
vt 0.500000 0.689422
vt 0.500000 0.752563
vt 0.437500 0.752563
vt 0.937500 0.689422
vt 1.000000 0.689422
vt 1.000000 0.752563
vt 0.937500 0.752563
vt 0.187500 0.187500
vt 0.250000 0.187500
vt 0.250000 0.250000
vt 0.187500 0.250000
vt 0.687500 0.187500
vt 0.750000 0.187500
vt 0.750000 0.250000
vt 0.687500 0.250000
vt 0.937500 0.187500
vt 1.000000 0.187500
vt 1.000000 0.250000
vt 0.937500 0.250000
vt 0.437500 0.187500
vt 0.500000 0.187500
vt 0.500000 0.250000
vt 0.437500 0.250000
vt 0.312500 0.187500
vt 0.375000 0.187500
vt 0.375000 0.250000
vt 0.312500 0.250000
vt 0.312500 0.689422
vt 0.375000 0.689422
vt 0.375000 0.752563
vt 0.312500 0.752563
vt 0.312500 0.437500
vt 0.375000 0.437500
vt 0.375000 0.500000
vt 0.312500 0.500000
vt 0.312500 0.938141
vt 0.375000 0.938141
vt 0.375000 1.000000
vt 0.312500 1.000000
vt 0.312500 0.062500
vt 0.375000 0.062500
vt 0.375000 0.125000
vt 0.312500 0.125000
vt 0.437500 0.062500
vt 0.500000 0.062500
vt 0.500000 0.125000
vt 0.437500 0.125000
vt 0.937500 0.062500
vt 1.000000 0.062500
vt 1.000000 0.125000
vt 0.937500 0.125000
vt 0.687500 0.062500
vt 0.750000 0.062500
vt 0.750000 0.125000
vt 0.687500 0.125000
vt 0.187500 0.062500
vt 0.250000 0.062500
vt 0.250000 0.125000
vt 0.187500 0.125000
vt 0.312500 0.312500
vt 0.375000 0.312500
vt 0.375000 0.375000
vt 0.312500 0.375000
vt 0.187500 0.312500
vt 0.250000 0.312500
vt 0.250000 0.375000
vt 0.187500 0.375000
vt 0.687500 0.312500
vt 0.750000 0.312500
vt 0.750000 0.375000
vt 0.687500 0.375000
vt 0.937500 0.312500
vt 1.000000 0.312500
vt 1.000000 0.375000
vt 0.937500 0.375000
vt 0.437500 0.312500
vt 0.500000 0.312500
vt 0.500000 0.375000
vt 0.437500 0.375000
vt 0.312500 0.563141
vt 0.375000 0.563141
vt 0.375000 0.626281
vt 0.312500 0.626281
vt 0.937500 0.563141
vt 1.000000 0.563141
vt 1.000000 0.626281
vt 0.937500 0.626281
vt 0.437500 0.563141
vt 0.500000 0.563141
vt 0.500000 0.626281
vt 0.437500 0.626281
vt 0.687500 0.563141
vt 0.750000 0.563141
vt 0.750000 0.626281
vt 0.687500 0.626281
vt 0.187500 0.563141
vt 0.250000 0.563141
vt 0.250000 0.626281
vt 0.187500 0.626281
vt 0.312500 0.814422
vt 0.375000 0.814422
vt 0.375000 0.876281
vt 0.312500 0.876281
vt 0.187500 0.814422
vt 0.250000 0.814422
vt 0.250000 0.876281
vt 0.187500 0.876281
vt 0.687500 0.814422
vt 0.750000 0.814422
vt 0.750000 0.876281
vt 0.687500 0.876281
vt 0.437500 0.814422
vt 0.500000 0.814422
vt 0.500000 0.876281
vt 0.437500 0.876281
vt 0.937500 0.814422
vt 1.000000 0.814422
vt 1.000000 0.876281
vt 0.937500 0.876281
vt 0.062500 0.814422
vt 0.125000 0.814422
vt 0.125000 0.876281
vt 0.062500 0.876281
vt 0.062500 0.563141
vt 0.125000 0.563141
vt 0.125000 0.626281
vt 0.062500 0.626281
vt 0.062500 0.312500
vt 0.125000 0.312500
vt 0.125000 0.375000
vt 0.062500 0.375000
vt 0.062500 0.062500
vt 0.125000 0.062500
vt 0.125000 0.125000
vt 0.062500 0.125000
vt 0.062500 0.187500
vt 0.125000 0.187500
vt 0.125000 0.250000
vt 0.062500 0.250000
vt 0.062500 0.689422
vt 0.125000 0.689422
vt 0.125000 0.752563
vt 0.062500 0.752563
vt 0.062500 0.938141
vt 0.125000 0.938141
vt 0.125000 1.000000
vt 0.062500 1.000000
vt 0.062500 0.437500
vt 0.125000 0.437500
vt 0.125000 0.500000
vt 0.062500 0.500000
vt 0.562500 0.814422
vt 0.625000 0.814422
vt 0.625000 0.876281
vt 0.562500 0.876281
vt 0.562500 0.563141
vt 0.625000 0.563141
vt 0.625000 0.626281
vt 0.562500 0.626281
vt 0.562500 0.312500
vt 0.625000 0.312500
vt 0.625000 0.375000
vt 0.562500 0.375000
vt 0.562500 0.062500
vt 0.625000 0.062500
vt 0.625000 0.125000
vt 0.562500 0.125000
vt 0.562500 0.187500
vt 0.625000 0.187500
vt 0.625000 0.250000
vt 0.562500 0.250000
vt 0.562500 0.689422
vt 0.625000 0.689422
vt 0.625000 0.752563
vt 0.562500 0.752563
vt 0.562500 0.938141
vt 0.625000 0.938141
vt 0.625000 1.000000
vt 0.562500 1.000000
vt 0.562500 0.437500
vt 0.625000 0.437500
vt 0.625000 0.500000
vt 0.562500 0.500000
vt 0.812500 0.814422
vt 0.875000 0.814422
vt 0.875000 0.876281
vt 0.812500 0.876281
vt 0.812500 0.563141
vt 0.875000 0.563141
vt 0.875000 0.626281
vt 0.812500 0.626281
vt 0.812500 0.312500
vt 0.875000 0.312500
vt 0.875000 0.375000
vt 0.812500 0.375000
vt 0.812500 0.062500
vt 0.875000 0.062500
vt 0.875000 0.125000
vt 0.812500 0.125000
vt 0.812500 0.187500
vt 0.875000 0.187500
vt 0.875000 0.250000
vt 0.812500 0.250000
vt 0.812500 0.689422
vt 0.875000 0.689422
vt 0.875000 0.752563
vt 0.812500 0.752563
vt 0.812500 0.437500
vt 0.875000 0.437500
vt 0.875000 0.500000
vt 0.812500 0.500000
vt 0.812500 0.938141
vt 0.875000 0.938141
vt 0.875000 1.000000
vt 0.812500 1.000000
vt 0.750000 0.000000
vt 0.812500 0.000000
vt 0.875000 0.000000
vt 0.500000 0.000000
vt 0.562500 0.000000
vt 0.625000 0.000000
vt 0.000000 0.437500
vt 0.000000 0.500000
vt 0.000000 0.375000
vt 0.000000 0.938141
vt 0.000000 1.000000
vt 0.000000 0.876281
vt 0.000000 0.689422
vt 0.000000 0.752563
vt 0.000000 0.626281
vt 0.000000 0.187500
vt 0.000000 0.250000
vt 0.000000 0.125000
vt 0.000000 0.062500
vt 0.000000 0.000000
vt 0.062500 0.000000
vt 0.125000 0.000000
vt 0.000000 0.312500
vt 0.000000 0.563141
vt 0.000000 0.814422
vt 0.187500 0.000000
vt 0.250000 0.000000
vt 0.687500 0.000000
vt 0.937500 0.000000
vt 1.000000 0.000000
vt 0.375000 0.000000
vt 0.437500 0.000000
vt 0.312500 0.000000
vn 0.0000 1.0000 0.0000
usemtl None
s off
f 289/1/1 84/2/1 4/3/1 210/4/1
f 288/5/1 88/6/1 6/7/1 123/8/1
f 287/9/1 91/10/1 9/11/1 124/12/1
f 286/13/1 90/14/1 8/15/1 211/16/1
f 285/17/1 97/18/1 12/19/1 193/20/1
f 284/21/1 98/22/1 11/23/1 192/24/1
f 283/25/1 102/26/1 15/27/1 176/28/1
f 282/29/1 103/30/1 13/31/1 175/32/1
f 281/33/1 108/34/1 20/35/1 178/36/1
f 280/37/1 107/38/1 19/39/1 195/40/1
f 279/41/1 105/42/1 17/43/1 125/44/1
f 278/45/1 104/46/1 16/47/1 212/48/1
f 277/49/1 117/50/1 25/51/1 179/52/1
f 276/53/1 116/54/1 24/55/1 196/56/1
f 275/57/1 114/58/1 22/59/1 213/60/1
f 274/61/1 115/62/1 23/63/1 126/64/1
f 273/65/1 127/66/1 30/67/1 121/68/1
f 272/69/1 128/70/1 29/71/1 111/72/1
f 271/73/1 129/74/1 28/75/1 101/76/1
f 270/77/1 130/78/1 27/79/1 99/80/1
f 269/81/1 136/82/1 36/83/1 137/84/1
f 268/85/1 133/86/1 33/87/1 138/88/1
f 267/89/1 132/90/1 32/91/1 214/92/1
f 266/93/1 134/94/1 34/95/1 197/96/1
f 265/97/1 135/98/1 35/99/1 180/100/1
f 264/101/1 147/102/1 42/103/1 148/104/1
f 263/105/1 145/106/1 40/107/1 181/108/1
f 262/109/1 144/110/1 39/111/1 198/112/1
f 261/113/1 142/114/1 37/115/1 215/116/1
f 260/117/1 143/118/1 38/119/1 152/120/1
f 259/121/1 158/122/1 48/123/1 159/124/1
f 258/125/1 154/126/1 44/127/1 216/128/1
f 257/129/1 155/130/1 45/131/1 161/132/1
f 256/133/1 156/134/1 46/135/1 199/136/1
f 255/137/1 157/138/1 47/139/1 182/140/1
f 254/141/1 169/142/1 54/143/1 170/144/1
f 253/145/1 167/146/1 52/147/1 183/148/1
f 252/149/1 166/150/1 51/151/1 200/152/1
f 251/153/1 165/154/1 50/155/1 173/156/1
f 250/157/1 164/158/1 49/159/1 217/160/1
f 249/161/1 184/162/1 63/163/1 171/164/1
f 248/165/1 185/166/1 62/167/1 163/168/1
f 247/169/1 186/170/1 61/171/1 149/172/1
f 246/173/1 187/174/1 60/175/1 141/176/1
f 245/177/1 188/178/1 59/179/1 118/180/1
f 244/181/1 189/182/1 58/183/1 109/184/1
f 243/185/1 190/186/1 55/187/1 85/188/1
f 242/189/1 191/190/1 56/191/1 92/192/1
f 241/193/1 201/194/1 72/195/1 172/196/1
f 240/197/1 202/198/1 71/199/1 162/200/1
f 239/201/1 203/202/1 70/203/1 150/204/1
f 238/205/1 204/206/1 69/207/1 140/208/1
f 237/209/1 205/210/1 68/211/1 119/212/1
f 236/213/1 206/214/1 67/215/1 110/216/1
f 235/217/1 207/218/1 64/219/1 87/220/1
f 234/221/1 208/222/1 65/223/1 93/224/1
f 233/225/1 218/226/1 81/227/1 174/228/1
f 232/229/1 219/230/1 80/231/1 160/232/1
f 231/233/1 220/234/1 79/235/1 151/236/1
f 230/237/1 221/238/1 78/239/1 139/240/1
f 229/241/1 222/242/1 77/243/1 120/244/1
f 228/245/1 223/246/1 76/247/1 112/248/1
f 227/249/1 224/250/1 75/251/1 96/252/1
f 226/253/1 225/254/1 74/255/1 95/256/1
f 98/22/1 226/253/1 95/256/1 11/23/1
f 51/151/1 174/228/1 226/253/1 98/22/1
f 174/228/1 81/227/1 225/254/1 226/253/1
f 97/18/1 227/249/1 96/252/1 12/19/1
f 39/111/1 151/236/1 227/249/1 97/18/1
f 151/236/1 79/235/1 224/250/1 227/249/1
f 107/38/1 228/245/1 112/248/1 19/39/1
f 46/135/1 160/232/1 228/245/1 107/38/1
f 160/232/1 80/231/1 223/246/1 228/245/1
f 116/54/1 229/241/1 120/244/1 24/55/1
f 34/95/1 139/240/1 229/241/1 116/54/1
f 139/240/1 78/239/1 222/242/1 229/241/1
f 134/94/1 230/237/1 139/240/1 34/95/1
f 10/257/1 209/258/1 230/237/1 134/94/1
f 209/258/1 73/259/1 221/238/1 230/237/1
f 144/110/1 231/233/1 151/236/1 39/111/1
f 24/55/1 120/244/1 231/233/1 144/110/1
f 120/244/1 77/243/1 220/234/1 231/233/1
f 156/134/1 232/229/1 160/232/1 46/135/1
f 12/19/1 96/252/1 232/229/1 156/134/1
f 96/252/1 75/251/1 219/230/1 232/229/1
f 166/150/1 233/225/1 174/228/1 51/151/1
f 19/39/1 112/248/1 233/225/1 166/150/1
f 112/248/1 76/247/1 218/226/1 233/225/1
f 91/10/1 234/221/1 93/224/1 9/11/1
f 38/119/1 150/204/1 234/221/1 91/10/1
f 150/204/1 70/203/1 208/222/1 234/221/1
f 88/6/1 235/217/1 87/220/1 6/7/1
f 50/155/1 172/196/1 235/217/1 88/6/1
f 172/196/1 72/195/1 207/218/1 235/217/1
f 105/42/1 236/213/1 110/216/1 17/43/1
f 45/131/1 162/200/1 236/213/1 105/42/1
f 162/200/1 71/199/1 206/214/1 236/213/1
f 115/62/1 237/209/1 119/212/1 23/63/1
f 33/87/1 140/208/1 237/209/1 115/62/1
f 140/208/1 69/207/1 205/210/1 237/209/1
f 133/86/1 238/205/1 140/208/1 33/87/1
f 5/260/1 194/261/1 238/205/1 133/86/1
f 194/261/1 66/262/1 204/206/1 238/205/1
f 143/118/1 239/201/1 150/204/1 38/119/1
f 23/63/1 119/212/1 239/201/1 143/118/1
f 119/212/1 68/211/1 203/202/1 239/201/1
f 155/130/1 240/197/1 162/200/1 45/131/1
f 9/11/1 93/224/1 240/197/1 155/130/1
f 93/224/1 65/223/1 202/198/1 240/197/1
f 165/154/1 241/193/1 172/196/1 50/155/1
f 17/43/1 110/216/1 241/193/1 165/154/1
f 110/216/1 67/215/1 201/194/1 241/193/1
f 146/263/1 242/189/1 92/192/1 7/264/1
f 41/265/1 149/172/1 242/189/1 146/263/1
f 149/172/1 61/171/1 191/190/1 242/189/1
f 168/266/1 243/185/1 85/188/1 3/267/1
f 53/268/1 171/164/1 243/185/1 168/266/1
f 171/164/1 63/163/1 190/186/1 243/185/1
f 153/269/1 244/181/1 109/184/1 18/270/1
f 43/271/1 163/168/1 244/181/1 153/269/1
f 163/168/1 62/167/1 189/182/1 244/181/1
f 131/272/1 245/177/1 118/180/1 21/273/1
f 31/274/1 141/176/1 245/177/1 131/272/1
f 141/176/1 60/175/1 188/178/1 245/177/1
f 82/275/1 246/173/1 141/176/1 31/274/1
f 1/276/1 177/277/1 246/173/1 82/275/1
f 177/277/1 57/278/1 187/174/1 246/173/1
f 113/279/1 247/169/1 149/172/1 41/265/1
f 21/273/1 118/180/1 247/169/1 113/279/1
f 118/180/1 59/179/1 186/170/1 247/169/1
f 89/280/1 248/165/1 163/168/1 43/271/1
f 7/264/1 92/192/1 248/165/1 89/280/1
f 92/192/1 56/191/1 185/166/1 248/165/1
f 106/281/1 249/161/1 171/164/1 53/268/1
f 18/270/1 109/184/1 249/161/1 106/281/1
f 109/184/1 58/183/1 184/162/1 249/161/1
f 218/226/1 250/157/1 217/160/1 81/227/1
f 76/247/1 212/48/1 250/157/1 218/226/1
f 212/48/1 16/47/1 164/158/1 250/157/1
f 169/142/1 251/153/1 173/156/1 54/143/1
f 29/71/1 125/44/1 251/153/1 169/142/1
f 125/44/1 17/43/1 165/154/1 251/153/1
f 201/194/1 252/149/1 200/152/1 72/195/1
f 67/215/1 195/40/1 252/149/1 201/194/1
f 195/40/1 19/39/1 166/150/1 252/149/1
f 184/162/1 253/145/1 183/148/1 63/163/1
f 58/183/1 178/36/1 253/145/1 184/162/1
f 178/36/1 20/35/1 167/146/1 253/145/1
f 167/146/1 254/141/1 170/144/1 52/147/1
f 20/35/1 111/72/1 254/141/1 167/146/1
f 111/72/1 29/71/1 169/142/1 254/141/1
f 185/166/1 255/137/1 182/140/1 62/167/1
f 56/191/1 176/28/1 255/137/1 185/166/1
f 176/28/1 15/27/1 157/138/1 255/137/1
f 202/198/1 256/133/1 199/136/1 71/199/1
f 65/223/1 193/20/1 256/133/1 202/198/1
f 193/20/1 12/19/1 156/134/1 256/133/1
f 158/122/1 257/129/1 161/132/1 48/123/1
f 28/75/1 124/12/1 257/129/1 158/122/1
f 124/12/1 9/11/1 155/130/1 257/129/1
f 219/230/1 258/125/1 216/128/1 80/231/1
f 75/251/1 211/16/1 258/125/1 219/230/1
f 211/16/1 8/15/1 154/126/1 258/125/1
f 157/138/1 259/121/1 159/124/1 47/139/1
f 15/27/1 101/76/1 259/121/1 157/138/1
f 101/76/1 28/75/1 158/122/1 259/121/1
f 147/102/1 260/117/1 152/120/1 42/103/1
f 30/67/1 126/64/1 260/117/1 147/102/1
f 126/64/1 23/63/1 143/118/1 260/117/1
f 220/234/1 261/113/1 215/116/1 79/235/1
f 77/243/1 213/60/1 261/113/1 220/234/1
f 213/60/1 22/59/1 142/114/1 261/113/1
f 203/202/1 262/109/1 198/112/1 70/203/1
f 68/211/1 196/56/1 262/109/1 203/202/1
f 196/56/1 24/55/1 144/110/1 262/109/1
f 186/170/1 263/105/1 181/108/1 61/171/1
f 59/179/1 179/52/1 263/105/1 186/170/1
f 179/52/1 25/51/1 145/106/1 263/105/1
f 145/106/1 264/101/1 148/104/1 40/107/1
f 25/51/1 121/68/1 264/101/1 145/106/1
f 121/68/1 30/67/1 147/102/1 264/101/1
f 187/174/1 265/97/1 180/100/1 60/175/1
f 57/278/1 100/282/1 265/97/1 187/174/1
f 100/282/1 14/283/1 135/98/1 265/97/1
f 204/206/1 266/93/1 197/96/1 69/207/1
f 66/262/1 94/284/1 266/93/1 204/206/1
f 94/284/1 10/257/1 134/94/1 266/93/1
f 221/238/1 267/89/1 214/92/1 78/239/1
f 73/259/1 83/285/1 267/89/1 221/238/1
f 83/285/1 2/286/1 132/90/1 267/89/1
f 136/82/1 268/85/1 138/88/1 36/83/1
f 26/287/1 86/288/1 268/85/1 136/82/1
f 86/288/1 5/260/1 133/86/1 268/85/1
f 135/98/1 269/81/1 137/84/1 35/99/1
f 14/283/1 122/289/1 269/81/1 135/98/1
f 122/289/1 26/287/1 136/82/1 269/81/1
f 103/30/1 270/77/1 99/80/1 13/31/1
f 52/147/1 170/144/1 270/77/1 103/30/1
f 170/144/1 54/143/1 130/78/1 270/77/1
f 102/26/1 271/73/1 101/76/1 15/27/1
f 40/107/1 148/104/1 271/73/1 102/26/1
f 148/104/1 42/103/1 129/74/1 271/73/1
f 108/34/1 272/69/1 111/72/1 20/35/1
f 47/139/1 159/124/1 272/69/1 108/34/1
f 159/124/1 48/123/1 128/70/1 272/69/1
f 117/50/1 273/65/1 121/68/1 25/51/1
f 35/99/1 137/84/1 273/65/1 117/50/1
f 137/84/1 36/83/1 127/66/1 273/65/1
f 127/66/1 274/61/1 126/64/1 30/67/1
f 36/83/1 138/88/1 274/61/1 127/66/1
f 138/88/1 33/87/1 115/62/1 274/61/1
f 222/242/1 275/57/1 213/60/1 77/243/1
f 78/239/1 214/92/1 275/57/1 222/242/1
f 214/92/1 32/91/1 114/58/1 275/57/1
f 205/210/1 276/53/1 196/56/1 68/211/1
f 69/207/1 197/96/1 276/53/1 205/210/1
f 197/96/1 34/95/1 116/54/1 276/53/1
f 188/178/1 277/49/1 179/52/1 59/179/1
f 60/175/1 180/100/1 277/49/1 188/178/1
f 180/100/1 35/99/1 117/50/1 277/49/1
f 223/246/1 278/45/1 212/48/1 76/247/1
f 80/231/1 216/128/1 278/45/1 223/246/1
f 216/128/1 44/127/1 104/46/1 278/45/1
f 128/70/1 279/41/1 125/44/1 29/71/1
f 48/123/1 161/132/1 279/41/1 128/70/1
f 161/132/1 45/131/1 105/42/1 279/41/1
f 206/214/1 280/37/1 195/40/1 67/215/1
f 71/199/1 199/136/1 280/37/1 206/214/1
f 199/136/1 46/135/1 107/38/1 280/37/1
f 189/182/1 281/33/1 178/36/1 58/183/1
f 62/167/1 182/140/1 281/33/1 189/182/1
f 182/140/1 47/139/1 108/34/1 281/33/1
f 190/186/1 282/29/1 175/32/1 55/187/1
f 63/163/1 183/148/1 282/29/1 190/186/1
f 183/148/1 52/147/1 103/30/1 282/29/1
f 191/190/1 283/25/1 176/28/1 56/191/1
f 61/171/1 181/108/1 283/25/1 191/190/1
f 181/108/1 40/107/1 102/26/1 283/25/1
f 207/218/1 284/21/1 192/24/1 64/219/1
f 72/195/1 200/152/1 284/21/1 207/218/1
f 200/152/1 51/151/1 98/22/1 284/21/1
f 208/222/1 285/17/1 193/20/1 65/223/1
f 70/203/1 198/112/1 285/17/1 208/222/1
f 198/112/1 39/111/1 97/18/1 285/17/1
f 224/250/1 286/13/1 211/16/1 75/251/1
f 79/235/1 215/116/1 286/13/1 224/250/1
f 215/116/1 37/115/1 90/14/1 286/13/1
f 129/74/1 287/9/1 124/12/1 28/75/1
f 42/103/1 152/120/1 287/9/1 129/74/1
f 152/120/1 38/119/1 91/10/1 287/9/1
f 130/78/1 288/5/1 123/8/1 27/79/1
f 54/143/1 173/156/1 288/5/1 130/78/1
f 173/156/1 50/155/1 88/6/1 288/5/1
f 225/254/1 289/1/1 210/4/1 74/255/1
f 81/227/1 217/160/1 289/1/1 225/254/1
f 217/160/1 49/159/1 84/2/1 289/1/1
